<?xml version="1.0" encoding="utf-8"?>
<!-- Generator: Adobe Illustrator 28.1.0, SVG Export Plug-In . SVG Version: 6.00 Build 0)  -->
<svg version="1.1" xmlns="http://www.w3.org/2000/svg" xmlns:xlink="http://www.w3.org/1999/xlink" x="0px" y="0px"
	 viewBox="0 0 1920 1080" style="enable-background:new 0 0 1920 1080;" xml:space="preserve">
<style type="text/css">
	.st0{display:none;}
	.st1{display:inline;fill:#CCCCCC;}
	.st2{display:inline;fill:none;stroke:#0D274D;stroke-width:2;stroke-linecap:round;stroke-linejoin:round;stroke-miterlimit:10;}
	.st3{display:inline;fill:none;stroke:#0D274D;stroke-width:2;stroke-miterlimit:10;}
	.st4{fill:none;stroke:#0D274D;stroke-width:2;stroke-linecap:round;stroke-linejoin:round;stroke-miterlimit:10;}
	.st5{fill:#A8B2C0;stroke:#0D274D;stroke-width:2;stroke-miterlimit:10;}
	.st6{fill:#00BCEB;stroke:#0D274D;stroke-width:2;stroke-linecap:round;stroke-linejoin:round;stroke-miterlimit:10;}
	.st7{fill:#0D274D;}
	.st8{fill:#0D274D;stroke:#0D274D;stroke-width:2;stroke-linecap:round;stroke-linejoin:round;stroke-miterlimit:10;}
	.st9{fill:#FFFFFF;stroke:#0D274D;stroke-width:2;stroke-linecap:round;stroke-linejoin:round;stroke-miterlimit:10;}
	.st10{fill:#A8B2C0;stroke:#0D274D;stroke-width:2;stroke-linecap:round;stroke-linejoin:round;stroke-miterlimit:10;}
	.st11{fill:#485D7C;stroke:#0D274D;stroke-width:2;stroke-linecap:round;stroke-linejoin:round;stroke-miterlimit:10;}
	.st12{fill:#FBAB2C;stroke:#0D274D;stroke-width:2;stroke-linecap:round;stroke-linejoin:round;stroke-miterlimit:10;}
	.st13{fill:#E2E2E2;stroke:#0D274D;stroke-width:2;stroke-linecap:round;stroke-linejoin:round;stroke-miterlimit:10;}
	.st14{fill:#0051AF;stroke:#0D274D;stroke-width:2;stroke-linecap:round;stroke-linejoin:round;stroke-miterlimit:10;}
	.st15{fill:#FFFFFF;stroke:#0D274D;stroke-width:2;stroke-linejoin:round;stroke-miterlimit:10;}
	.st16{fill:#FFFFFF;stroke:#0D274D;stroke-width:2;stroke-miterlimit:10;}
	.st17{fill:#0D274D;stroke:#0D274D;stroke-miterlimit:10;}
	.st18{fill:#FFFFFF;}
	.st19{fill:#0D274D;stroke:#0D274D;stroke-width:2;stroke-miterlimit:10;}
	.st20{fill:#74BF4B;stroke:#0D274D;stroke-width:2;stroke-linecap:round;stroke-linejoin:round;stroke-miterlimit:10;}
	.st21{fill:#E2E2E2;stroke:#0D274D;stroke-width:2;stroke-linecap:round;stroke-linejoin:round;}
	.st22{fill:#FFFFFF;stroke:#0D274D;stroke-width:2;stroke-linecap:round;stroke-linejoin:round;}
	.st23{fill:#FBAB2C;stroke:#0D274D;stroke-width:2;stroke-linecap:round;stroke-linejoin:round;}
	.st24{fill:#E3241B;stroke:#0D274D;stroke-width:2;stroke-linecap:round;stroke-linejoin:round;stroke-miterlimit:10;}
</style>
<g id="_x5B__bg_gray__x5D_" class="st0">
	<rect class="st1" width="1920" height="1080"/>
</g>
<g id="_x5B__guides__x5D_" class="st0">
	<rect x="780" y="0" class="st2" width="360" height="1080"/>
	<rect x="1220" y="0" class="st2" width="360" height="1080"/>
	<rect x="340" y="0" class="st2" width="360" height="1080"/>
</g>
<g id="_x5B__ground__x5D_" class="st0">
	<line class="st3" x1="0" y1="1000" x2="1920" y2="1000"/>
</g>
<g id="Main">
	<circle class="st4" cx="854" cy="886" r="40"/>
	<circle class="st4" cx="1272" cy="926" r="40"/>
	<circle class="st4" cx="684" cy="802" r="40"/>
	<g>
		<path class="st5" d="M1448.39,836.55l6.39-20.02c5.96-18.68-5.08-38.51-24.1-43.28l-31.89-8c-6.65,4.52-11.14,12.04-11.45,20.69
			l-0.91,24.96c-0.52,14.43,11.62,26.3,26.05,26.82v5.36l36.38-0.06L1448.39,836.55"/>
		<path class="st6" d="M1448.88,842.91l-36.38,0.07l-0.17,10.94l-2.85-0.01l-6.7-0.02c-20.8-0.08-38.52,15.07-41.67,35.63
			L1344.15,1000h174.58c19.99,0,34.1-19.61,27.73-38.57l-32.84-73.59c-9.14-20.48-29.44-33.7-51.87-33.77l-11.8,0.08L1448.88,842.91
			"/>
		<path class="st4" d="M1516.77,958.64h-47.69c-5.48,0-12.71,0.21-18.18,0.53"/>
		<polyline class="st4" points="1469.03,893.84 1474.21,906.47 1495.61,958.64 		"/>
		<path class="st4" d="M1450.73,959.23l4.16,23.8c0.23,1.35-0.91,2.41-1.14,3.76l-1.53,4.27l64.56,8.94"/>
		<path class="st5" d="M1438.19,960.39l-41.83,4.63c-2.85,0.32-5.52,1.54-7.62,3.49l-14.83,13.62c-1.35,1.24-1.44,3.34-0.21,4.69
			l0,0c1.06,1.17,2.8,1.43,4.16,0.63l2.17-1.28"/>
		<path class="st5" d="M1453.62,976.76l-19.31,4.68c-5.1,1.16-10.42,0.81-15.32-1.01l-14.44-5.35l-18.96,13.13
			c-1.22,0.85-3.45,0.84-4.51-0.03c-0.09-0.08-0.13-0.18-0.21-0.26c-1.22-1.37-1.08-3.49,0.31-4.71l17.58-15.28
			c1.51-1.31,3.41-2.12,5.41-2.29l17.4-2.97c9.19-1.57,19.83-2.76,29.12-3.42L1453.62,976.76z"/>
		<polygon class="st7" points="1472.62,902.58 1485.35,958.64 1495.61,958.64 		"/>
		<path class="st8" d="M1452.21,991.06L1452.21,991.06c-0.9,0-1.71-0.54-2.06-1.37l-0.75-1.78l-2.76-9.28l7.16-1.84l1.09,6.24v2.48
			l-0.45,3.58C1454.3,990.22,1453.34,991.06,1452.21,991.06z"/>
		<path class="st8" d="M1435.41,797.16c-9.79,5.92-5.92,23.43-7.63,29.05c-2.79,9.2-8.13,13.93-17.29,13.85
			c-7.82-0.07-17.31,1.43-22.41-8.67c-2.4-4.75-1.88-15.81-1.55-20.58c1.34-0.19,19.74,1.3,25.09,0.09
			c5.37-1.21,10.33-4.03,12.05-14.52c0.89-5.43,2.18-24.53,2.18-24.53"/>
		<path class="st8" d="M1443.75,810.45c-8.4,10.85,4.64,26.1,4.64,26.1c4.16-6.32,11.92-21.8,15.82-30.84
			c3.35-7.76,4.37-12.65,4.8-21.09c0.15-3.01-0.65-7.67-1.66-10.51c-0.86-2.44-4.13-10.02-11.2-13.92
			c-5.04-2.78-11.52-1.38-16.75-3.79c-1.85-0.85-3.47-2.13-5.25-3.13c-1.78-0.99-3.85-1.71-5.84-1.28
			c-1.99,0.43-3.76,2.34-3.43,4.35c-1.6-1.82-3.4-3.74-5.79-4.14c-2.39-0.39-5.22,1.79-4.46,4.08c-2.5-3.11-4.99-6.53-8.92-7.19
			c-4.6-0.77-6.77,4.22-6.49,5.42c-3.1-4.33-10.43-7.08-15.54-5.58c-6.34,1.86-10.93,13.64-2.26,20.38
			c7.08,5.51,12.33,5.78,17.79,5.78c4.72,0.01,22-2.45,26.65-3.26c0,0-2.6,25.18,9.56,25.31L1443.75,810.45z"/>
		<g>
			<path class="st9" d="M1389.66,993.97h69.92c1.66,0,3.01,1.35,3.01,3.01l0,0c0,1.66-1.35,3.01-3.01,3.01h-177.59"/>
			<g>
				<path class="st9" d="M1267.32,1000h120c1.49,0,2.54-1.21,2.34-2.71l-12.18-90.77c-0.09-0.69-0.73-1.25-1.42-1.25h-122.91
					c-0.69,0-1.18,0.56-1.08,1.25l12.18,90.77C1264.45,998.79,1265.83,1000,1267.32,1000z"/>
			</g>
		</g>
		<path class="st10" d="M1434.15,798.13c1.97-1.6,4.64-2.35,7.45-1.72c3.35,0.75,6.01,3.53,6.59,6.91
			c0.97,5.65-3.47,10.44-8.87,10.24"/>
	</g>
	<g>
		<g>
			<path class="st11" d="M1025.64,833.57c0,0,30.3,2.86,33.35-6.22l-10.43-20.04c0,0,5.79-21.8-15.48-45.83
				c-21.28-24.03-52.24-4.2-52.24-4.2c-4.43,6.72-5.71,15.4-2.69,23.52l4.21,11.35c1.35,3.92-2.71,5.27-1.86,8.55
				c0.48,1.84,2.79,3.28,4.7,2.57l1.13-0.42l0.52,1.39c5.03,13.56,20.09,20.47,33.65,15.44L1025.64,833.57z"/>
			<path class="st12" d="M1025.18,793.3l-6.97,10.56c-1.59,2.4-0.35,5.65,2.43,6.4l0,0c2.78,0.74,5.47-1.45,5.3-4.33L1025.18,793.3z
				"/>
			<path class="st8" d="M968.05,760.59c-5.79,4.92-8.17,13.73-4.89,20.59l0,0c2.42,5.06,7.21,8.57,12.76,9.35l6.25,0.88l-6.93-37.11
				L968.05,760.59"/>
			<path class="st8" d="M1060.97,756.86c0.85,10.17-10.07,19.47-19.97,17.01c-11.5-2.85-16.77-17-27.72-21.52
				c-4.51-1.86-9.6-1.9-14.14-3.68c-7.76-3.05-13-11.54-12.25-19.84c0.75-8.3,7.42-15.72,15.6-17.33
				c-6.26-5.2-9.51-13.96-7.64-21.88c1.87-7.92,9.06-14.43,17.18-15c8.12-0.57,16.37,5.24,18.09,13.19
				c2.91-10.07,15.14-16.67,24.83-12.68s13.4,18.42,6.19,26.03c5.48-8.46,20.2-8.07,25.23,0.66s-2.03,21.66-12.1,22.15
				c8.79,1.59,13.12,13.16,9.33,21.25c-3.79,8.09-13.19,12.36-22.12,12.56"/>
			<path class="st8" d="M1020.89,777.46c0,0-32.55,1.67-51.63-13.66l-2.56-1.92c3.77-3.57,7.93-7.89,13.13-10.61l22.45-11.75
				c2.17-1.13,4.49-1.97,6.88-2.48c11.06-2.35,22.52,2.25,31.3,8.79c4.79,3.57,15.05,18.12,13.46,38.71
				c-0.36,4.64-4.21,22.69-4.21,22.69s-13.14-8.44-21.4-21.98"/>
			<path class="st11" d="M1020.4,776.85c1.68-1.14,3.77-1.7,5.95-1.43c4.77,0.59,8.15,4.94,7.56,9.71s-4.94,8.15-9.71,7.56"/>
		</g>
		<path class="st9" d="M1007.14,866.61l7.4-19.26l0,0c4.43-11.37,14.17-20.29,26.61-23.33l0,0c19.92-4.88,40.15,6.79,45.9,26.47
			l8.3,27.61l25.53,82.05c0.12,0.4,0.24,0.79,0.34,1.19c3.28,12.49-3.72,25.41-15.73,30.16l-0.02,0.01l-85.06-6.26l-2.2-23.16l0,0
			c-10.24,6.67-23.69,8.01-35.6,2.14l-49.33-24.32c-2.81-1.38-4.08-4.69-2.92-7.6l8.38-21.09c1.21-3.03,4.61-4.55,7.67-3.41
			l38.69,14.43l25.19-63.4"/>
		<path class="st4" d="M1018.22,962.09c6.3-4.35,11.57-10.77,14.13-17.8l23.08-63.2"/>
		<g>
			<g>
				<path class="st13" d="M807.97,971.72l61.61,4.2c1.61,0.1,2.82-1.13,2.71-2.75l-6.85-98.53c-0.05-0.75-0.7-1.4-1.44-1.44
					l-64.74-4.4c-0.74-0.05-1.3,0.52-1.25,1.27l6.85,98.53C804.97,970.22,806.37,971.62,807.97,971.72z"/>
			</g>
			<path class="st13" d="M804.65,965.67l72.61,4.58l72.9,4.67c1.65,0.11,2.91,1.53,2.8,3.19l0,0c-0.11,1.65-1.53,2.91-3.19,2.8
				l-141.27-9.13c-1.7-0.11-3.1-1.38-3.37-3.07L804.65,965.67z"/>
		</g>
		<path class="st7" d="M1032.83,942.96l-12.75,38.86l-1.87-19.73c1.53-1.55,5.48-2.6,6.78-4.58
			C1029.95,949.94,1028.07,952.09,1032.83,942.96z"/>
		<path class="st11" d="M920.1,921.21l-28.66,14.77c-1.94,1.02-3.49,2.64-4.44,4.61l-6.66,13.33c-0.58,1.16-0.23,2.57,0.83,3.32l0,0
			c1.17,0.83,2.79,0.56,3.64-0.59l0.88-1.2"/>
		<path class="st11" d="M936.45,914.69l-6.08,17.62l-7.36,4.73c-3.3,2.25-7.18,3.49-11.17,3.57l-11.76,0.23l-9.81,14.63
			c-0.63,0.94-2.22,1.56-3.22,1.24c-0.09-0.03-0.14-0.09-0.22-0.13c-1.25-0.64-1.75-2.18-1.09-3.43l8.7-17.27
			c0.71-1.36,1.83-2.46,3.2-3.14l28.86-15.11C926.5,917.63,932.45,914.36,936.45,914.69"/>
		<path class="st14" d="M1112.36,1000c-1.86-3.83-3.68-6.67-4.82-8.35l-235.63-16.21c-18.87-1.3-36.36,8.57-45.24,24.56H1112.36z"/>
	</g>
	<g>
		<path class="st9" d="M502.88,922h175.87c2.02,0,3.73-1.5,3.99-3.5l17.24-130.23c0.16-1.2-0.78-2.27-1.99-2.27H518.04
			c-1.01,0-1.86,0.75-1.99,1.75l-17.17,129.7C498.57,919.86,500.45,922,502.88,922z"/>
		<path class="st6" d="M692.83,788.27c0.16-1.2-0.78-2.27-1.99-2.27H510.9c-1.01,0-1.86,0.75-1.99,1.75L494.31,898h184
			L692.83,788.27z"/>
		<path class="st9" d="M494.31,898l-2.57,19.44c-0.32,2.41,1.56,4.56,3.99,4.56H671.6c2.02,0,3.73-1.5,3.99-3.5l2.71-20.5H494.31z"
			/>
		<polygon class="st9" points="534.85,954 682.85,954 682.85,960 646.85,980 534.85,980 		"/>
		<polygon class="st9" points="534.85,954 682.85,954 646.85,974 534.85,974 		"/>
		<g>
			<path class="st9" d="M459.54,750.59h20.16c4.06,0,8.77,1.82,11.36,4.95l0,0c3.72,4.51,4.02,10.87,0.93,15.84l-1.67,1.64"/>
			<path class="st15" d="M479.55,755.89c6.8,4.99,11.22,13.05,11.22,22.14v26.21c0,15.16-12.29,27.44-27.44,27.44l1.06,18.32
				l-43.86-0.31l4.3-20.92l3.27-3.54c4.56-4.94,7.1-11.41,7.12-18.14l0-2.09c-5.19,0-9.36-4.33-9.11-9.57
				c0.22-4.69,4.11-8.51,8.8-8.67c2.42-0.08,4.64,0.78,6.31,2.25L479.55,755.89z"/>
			<path class="st4" d="M479.56,755.89c-9.01,20.38-38.04,32.6-38.04,32.6"/>
			<path class="st16" d="M479.53,755.94c0,0,3.45,2.65,6.28,6.52c2.38,3.24,4.19,7.46,4.4,10.48c0,0,7.69-6.43,1.66-16.08
				c-6.04-9.65-22.32-6.18-29.29-6.18c-4.92,0-18.98-1.27-29.91,0.53c-4.58,0.75-8.58,2.19-11.16,4.26
				c-9.2,7.37-15.33,18.57-10.63,42.41c4.06,20.58,13.96,30.89,13.96,30.89s11.76-9.09,10.69-24.08c0,0-9.83-0.62-9.04-9.5
				c0.79-8.87,9.3-10.3,14.74-6.48c0,0,15.61-6.8,27.81-18.86C473.12,765.82,476.83,761.11,479.53,755.94z"/>
			<path class="st17" d="M469.75,769.03"/>
		</g>
		<g>
			<path class="st18" d="M572.85,990.04l27.63-40.52c1.23-1.81,3.8-2.05,5.35-0.5h0c0.56,0.56,0.9,1.3,0.98,2.08l0.42-0.62
				c0.97-1.46,2.76-2.15,4.46-1.73l13.16,3.25h11c1.66,0,3,1.34,3,3s-1.34,3-3,3h-17.59c-0.84,0-1.59,0.54-1.85,1.34L612.85,970l8-8
				h18.65c0.83,0,1.58,0.47,1.95,1.2c0.68,1.36-0.2,2.97-1.71,3.14L624.85,968l-16,30L572.85,990.04z"/>
			<g>
				<path class="st9" d="M572.85,990.04l27.63-40.52c1.23-1.81,3.8-2.05,5.35-0.5h0c0.65,0.65,1.02,1.54,1.02,2.47v6.55"/>
				<path class="st9" d="M596.85,966.04l10.38-15.57c0.97-1.46,2.76-2.15,4.46-1.73l13.16,3.25c0,0-12,6.04-12,6.04"/>
				<path class="st9" d="M608.85,998l16-30l14.89-1.65c1.51-0.17,2.39-1.78,1.71-3.14l0,0c-0.37-0.74-1.12-1.2-1.95-1.2h-18.65l-8,8
					l3.55-10.66c0.27-0.8,1.01-1.34,1.85-1.34h17.59c1.66,0,3-1.34,3-3l0,0c0-1.66-1.34-3-3-3h-20.58c-1.49,0-2.87,0.81-3.6,2.12
					L602.85,970"/>
			</g>
		</g>
		<polygon class="st13" points="616.85,1000 554.85,980 554.85,1000 		"/>
		<polygon class="st9" points="570.85,942 566.85,922 616.85,922 620.85,942 		"/>
		<path class="st8" d="M616.85,922c0,0-12.59,2.69-25.79,3.76S567.88,927,567.88,927l-1.03-5H616.85z"/>
		<path class="st13" d="M570,1000l-63.5-130.85c-6.1-12.59-18.81-20.62-32.8-20.72L411.96,848c-13.26-0.09-24.37,10-25.54,23.2
			L386,1000C386,1000,570,1000,570,1000z"/>
		<path class="st8" d="M489.14,1000c0,0-4.84-11.62-11.11-33.08S467.29,924,467.29,924l33.56,76H489.14z"/>
		<path class="st19" d="M456.86,1000h-93.03c-5.76,0-10.73-4.02-11.94-9.65l-12.77-59.59c-1.63-7.6,4.16-14.77,11.94-14.77h93.03
			c5.76,0,10.73,4.02,11.94,9.65l12.77,59.59C470.43,992.83,464.63,1000,456.86,1000z"/>
		<line class="st4" x1="500.85" y1="1000" x2="462.85" y2="914"/>
		<polygon class="st9" points="620.85,942 550.85,942 550.85,936 619.64,936 		"/>
	</g>
</g>
<g id="Rings">
	<circle class="st4" cx="960" cy="420" r="320"/>
	<circle class="st4" cx="960" cy="420" r="280"/>
	<g>
		<rect x="886" y="484" class="st9" width="148" height="24"/>
		<rect x="1018" y="492" class="st20" width="8" height="8"/>
		<rect x="1004" y="492" class="st20" width="8" height="8"/>
	</g>
	<g>
		<rect x="886" y="508" class="st9" width="148" height="24"/>
		<rect x="1018" y="516" class="st20" width="8" height="8"/>
		<rect x="1004" y="516" class="st20" width="8" height="8"/>
	</g>
	<g>
		<rect x="886" y="532" class="st9" width="148" height="24"/>
		<rect x="1018" y="540" class="st20" width="8" height="8"/>
		<rect x="1004" y="540" class="st20" width="8" height="8"/>
	</g>
	<g>
		<rect x="886" y="556" class="st9" width="148" height="24"/>
		<rect x="1018" y="564" class="st20" width="8" height="8"/>
		<rect x="1004" y="564" class="st20" width="8" height="8"/>
	</g>
	<g>
		<rect x="886" y="580" class="st9" width="148" height="24"/>
		<rect x="1018" y="588" class="st20" width="8" height="8"/>
		<rect x="1004" y="588" class="st20" width="8" height="8"/>
	</g>
	<g>
		<rect x="886" y="604" class="st9" width="148" height="24"/>
		<rect x="1018" y="612" class="st20" width="8" height="8"/>
		<rect x="1004" y="612" class="st20" width="8" height="8"/>
	</g>
	<path class="st4" d="M1034,492c8.84,0,16,7.16,16,16s-7.16,16-16,16"/>
	<path class="st4" d="M1034,516c8.84,0,16,7.16,16,16s-7.16,16-16,16"/>
	<path class="st4" d="M1034,564c8.84,0,16,7.16,16,16s-7.16,16-16,16"/>
	<path class="st4" d="M1034,588c8.84,0,16,7.16,16,16s-7.16,16-16,16"/>
	<line class="st4" x1="960" y1="420" x2="960" y2="484"/>
	<polyline class="st4" points="960,420 904,390 798,422 	"/>
	<line class="st4" x1="904" y1="390" x2="880" y2="354"/>
	<line class="st4" x1="904" y1="390" x2="844" y2="488"/>
	<line class="st4" x1="960" y1="420" x2="994" y2="332"/>
	<polyline class="st4" points="960,420 1044,444 1094,488 	"/>
	<line class="st4" x1="1044" y1="444" x2="1108" y2="380"/>
	<line class="st4" x1="1044" y1="444" x2="1024" y2="390"/>
	<path class="st21" d="M857.78,273h65.78c9.08,0,16.44-7.36,16.44-16.44c0-9.08-7.36-16.44-16.44-16.44c-2.59,0-5.04,0.6-7.21,1.66
		c-3.55-10.28-13.3-17.66-24.79-17.66c-13.62,0-24.81,10.39-26.1,23.67c-2.19-1.48-4.84-2.34-7.68-2.34
		c-7.61,0-13.78,6.17-13.78,13.78C844,266.83,850.17,273,857.78,273z"/>
	<path class="st22" d="M889,318h148c20.43,0,37-16.57,37-37c0-20.43-16.57-37-37-37c-5.82,0-11.33,1.35-16.23,3.75
		C1012.79,224.62,990.84,208,965,208c-30.65,0-55.83,23.37-58.72,53.26C901.34,257.94,895.4,256,889,256c-17.12,0-31,13.88-31,31
		C858,304.12,871.88,318,889,318z"/>
	<path class="st23" d="M938.95,348h100.04c13.81,0,25.01-11.2,25.01-25.01c0-13.81-11.2-25.01-25.01-25.01
		c-3.94,0-7.66,0.91-10.97,2.53c-5.4-15.63-20.23-26.87-37.7-26.87c-20.72,0-37.74,15.8-39.69,36c-3.34-2.25-7.36-3.56-11.68-3.56
		c-11.57,0-20.95,9.38-20.95,20.95C918,338.62,927.38,348,938.95,348z"/>
	<circle class="st13" cx="1044" cy="444" r="10"/>
	<circle class="st6" cx="1094" cy="488" r="14"/>
	<circle class="st8" cx="1274" cy="362" r="8"/>
	<circle class="st9" cx="1108" cy="380" r="6"/>
	<circle class="st6" cx="960" cy="420" r="22"/>
	<circle class="st14" cx="904" cy="390" r="14"/>
	<circle class="st8" cx="880" cy="354" r="6"/>
	<circle class="st14" cx="1024" cy="390" r="8"/>
	<circle class="st13" cx="798" cy="422" r="20"/>
	<circle class="st9" cx="844" cy="488" r="10"/>
	<circle class="st9" cx="960" cy="100" r="14"/>
	<rect x="726" y="186" class="st12" width="16" height="16"/>
	<circle class="st6" cx="710" cy="220" r="10"/>
	<circle class="st9" cx="696" cy="602" r="12"/>
	<polygon class="st14" points="913.3,736.9 932.01,750 934,727.25 	"/>
	
		<rect x="1266.62" y="407" transform="matrix(0.7071 0.7071 -0.7071 0.7071 671.7755 -781.8094)" class="st24" width="26" height="26"/>
	<line class="st4" x1="889.01" y1="732.1" x2="862.87" y2="846.99"/>
	<line class="st4" x1="1127.97" y1="692.42" x2="1251" y2="891.95"/>
	<line class="st4" x1="772.58" y1="679.4" x2="707.43" y2="769.58"/>
</g>
</svg>
